<?xml version="1.0" encoding="utf-8" standalone="no"?>
<!DOCTYPE svg PUBLIC "-//W3C//DTD SVG 1.1//EN"
  "http://www.w3.org/Graphics/SVG/1.1/DTD/svg11.dtd">
<svg xmlns:xlink="http://www.w3.org/1999/xlink" width="1008pt" height="576pt" viewBox="0 0 1008 576" xmlns="http://www.w3.org/2000/svg" version="1.1">
 <metadata>
  <rdf:RDF xmlns:dc="http://purl.org/dc/elements/1.1/" xmlns:cc="http://creativecommons.org/ns#" xmlns:rdf="http://www.w3.org/1999/02/22-rdf-syntax-ns#">
   <cc:Work>
    <dc:type rdf:resource="http://purl.org/dc/dcmitype/StillImage"/>
    <dc:date>2025-05-07T17:18:20.396899</dc:date>
    <dc:format>image/svg+xml</dc:format>
    <dc:creator>
     <cc:Agent>
      <dc:title>Matplotlib v3.8.0, https://matplotlib.org/</dc:title>
     </cc:Agent>
    </dc:creator>
   </cc:Work>
  </rdf:RDF>
 </metadata>
 <defs>
  <style type="text/css">*{stroke-linejoin: round; stroke-linecap: butt}</style>
 </defs>
 <g id="figure_1">
  <g id="patch_1">
   <path d="M 0 576 
L 1008 576 
L 1008 0 
L 0 0 
z
" style="fill: #ffffff"/>
  </g>
  <g id="axes_1">
   <g id="patch_2">
    <path d="M 53.13 526.74 
L 997.2 526.74 
L 997.2 33.36 
L 53.13 33.36 
z
" style="fill: #ffffff"/>
   </g>
   <g id="matplotlib.axis_1">
    <g id="xtick_1">
     <g id="line2d_1">
      <path d="M 114.934468 526.74 
L 114.934468 33.36 
" clip-path="url(#p5fc86d6f1c)" style="fill: none; stroke: #cccccc; stroke-width: 0.8; stroke-linecap: round"/>
     </g>
     <g id="line2d_2"/>
     <g id="text_1">
      <!-- 6 -->
      <g style="fill: #262626" transform="translate(112.154 537.397812) scale(0.1 -0.1)">
       <defs>
        <path id="ArialMT-36" d="M 3184 3459 
L 2625 3416 
Q 2550 3747 2413 3897 
Q 2184 4138 1850 4138 
Q 1581 4138 1378 3988 
Q 1113 3794 959 3422 
Q 806 3050 800 2363 
Q 1003 2672 1297 2822 
Q 1591 2972 1913 2972 
Q 2475 2972 2870 2558 
Q 3266 2144 3266 1488 
Q 3266 1056 3080 686 
Q 2894 316 2569 119 
Q 2244 -78 1831 -78 
Q 1128 -78 684 439 
Q 241 956 241 2144 
Q 241 3472 731 4075 
Q 1159 4600 1884 4600 
Q 2425 4600 2770 4297 
Q 3116 3994 3184 3459 
z
M 888 1484 
Q 888 1194 1011 928 
Q 1134 663 1356 523 
Q 1578 384 1822 384 
Q 2178 384 2434 671 
Q 2691 959 2691 1453 
Q 2691 1928 2437 2201 
Q 2184 2475 1800 2475 
Q 1419 2475 1153 2201 
Q 888 1928 888 1484 
z
" transform="scale(0.015625)"/>
       </defs>
       <use xlink:href="#ArialMT-36"/>
      </g>
     </g>
    </g>
    <g id="xtick_2">
     <g id="line2d_3">
      <path d="M 158.11663 526.74 
L 158.11663 33.36 
" clip-path="url(#p5fc86d6f1c)" style="fill: none; stroke: #cccccc; stroke-width: 0.8; stroke-linecap: round"/>
     </g>
     <g id="line2d_4"/>
     <g id="text_2">
      <!-- 7 -->
      <g style="fill: #262626" transform="translate(155.336161 537.397812) scale(0.1 -0.1)">
       <defs>
        <path id="ArialMT-37" d="M 303 3981 
L 303 4522 
L 3269 4522 
L 3269 4084 
Q 2831 3619 2401 2847 
Q 1972 2075 1738 1259 
Q 1569 684 1522 0 
L 944 0 
Q 953 541 1156 1306 
Q 1359 2072 1739 2783 
Q 2119 3494 2547 3981 
L 303 3981 
z
" transform="scale(0.015625)"/>
       </defs>
       <use xlink:href="#ArialMT-37"/>
      </g>
     </g>
    </g>
    <g id="xtick_3">
     <g id="line2d_5">
      <path d="M 201.298791 526.74 
L 201.298791 33.36 
" clip-path="url(#p5fc86d6f1c)" style="fill: none; stroke: #cccccc; stroke-width: 0.8; stroke-linecap: round"/>
     </g>
     <g id="line2d_6"/>
     <g id="text_3">
      <!-- 8 -->
      <g style="fill: #262626" transform="translate(198.518322 537.397812) scale(0.1 -0.1)">
       <defs>
        <path id="ArialMT-38" d="M 1131 2484 
Q 781 2613 612 2850 
Q 444 3088 444 3419 
Q 444 3919 803 4259 
Q 1163 4600 1759 4600 
Q 2359 4600 2725 4251 
Q 3091 3903 3091 3403 
Q 3091 3084 2923 2848 
Q 2756 2613 2416 2484 
Q 2838 2347 3058 2040 
Q 3278 1734 3278 1309 
Q 3278 722 2862 322 
Q 2447 -78 1769 -78 
Q 1091 -78 675 323 
Q 259 725 259 1325 
Q 259 1772 486 2073 
Q 713 2375 1131 2484 
z
M 1019 3438 
Q 1019 3113 1228 2906 
Q 1438 2700 1772 2700 
Q 2097 2700 2305 2904 
Q 2513 3109 2513 3406 
Q 2513 3716 2298 3927 
Q 2084 4138 1766 4138 
Q 1444 4138 1231 3931 
Q 1019 3725 1019 3438 
z
M 838 1322 
Q 838 1081 952 856 
Q 1066 631 1291 507 
Q 1516 384 1775 384 
Q 2178 384 2440 643 
Q 2703 903 2703 1303 
Q 2703 1709 2433 1975 
Q 2163 2241 1756 2241 
Q 1359 2241 1098 1978 
Q 838 1716 838 1322 
z
" transform="scale(0.015625)"/>
       </defs>
       <use xlink:href="#ArialMT-38"/>
      </g>
     </g>
    </g>
    <g id="xtick_4">
     <g id="line2d_7">
      <path d="M 244.480952 526.74 
L 244.480952 33.36 
" clip-path="url(#p5fc86d6f1c)" style="fill: none; stroke: #cccccc; stroke-width: 0.8; stroke-linecap: round"/>
     </g>
     <g id="line2d_8"/>
     <g id="text_4">
      <!-- 12 -->
      <g style="fill: #262626" transform="translate(238.920014 537.397812) scale(0.1 -0.1)">
       <defs>
        <path id="ArialMT-31" d="M 2384 0 
L 1822 0 
L 1822 3584 
Q 1619 3391 1289 3197 
Q 959 3003 697 2906 
L 697 3450 
Q 1169 3672 1522 3987 
Q 1875 4303 2022 4600 
L 2384 4600 
L 2384 0 
z
" transform="scale(0.015625)"/>
        <path id="ArialMT-32" d="M 3222 541 
L 3222 0 
L 194 0 
Q 188 203 259 391 
Q 375 700 629 1000 
Q 884 1300 1366 1694 
Q 2113 2306 2375 2664 
Q 2638 3022 2638 3341 
Q 2638 3675 2398 3904 
Q 2159 4134 1775 4134 
Q 1369 4134 1125 3890 
Q 881 3647 878 3216 
L 300 3275 
Q 359 3922 746 4261 
Q 1134 4600 1788 4600 
Q 2447 4600 2831 4234 
Q 3216 3869 3216 3328 
Q 3216 3053 3103 2787 
Q 2991 2522 2730 2228 
Q 2469 1934 1863 1422 
Q 1356 997 1212 845 
Q 1069 694 975 541 
L 3222 541 
z
" transform="scale(0.015625)"/>
       </defs>
       <use xlink:href="#ArialMT-31"/>
       <use xlink:href="#ArialMT-32" x="55.615234"/>
      </g>
     </g>
    </g>
    <g id="xtick_5">
     <g id="line2d_9">
      <path d="M 287.663113 526.74 
L 287.663113 33.36 
" clip-path="url(#p5fc86d6f1c)" style="fill: none; stroke: #cccccc; stroke-width: 0.8; stroke-linecap: round"/>
     </g>
     <g id="line2d_10"/>
     <g id="text_5">
      <!-- 15 -->
      <g style="fill: #262626" transform="translate(282.102176 537.397812) scale(0.1 -0.1)">
       <defs>
        <path id="ArialMT-35" d="M 266 1200 
L 856 1250 
Q 922 819 1161 601 
Q 1400 384 1738 384 
Q 2144 384 2425 690 
Q 2706 997 2706 1503 
Q 2706 1984 2436 2262 
Q 2166 2541 1728 2541 
Q 1456 2541 1237 2417 
Q 1019 2294 894 2097 
L 366 2166 
L 809 4519 
L 3088 4519 
L 3088 3981 
L 1259 3981 
L 1013 2750 
Q 1425 3038 1878 3038 
Q 2478 3038 2890 2622 
Q 3303 2206 3303 1553 
Q 3303 931 2941 478 
Q 2500 -78 1738 -78 
Q 1113 -78 717 272 
Q 322 622 266 1200 
z
" transform="scale(0.015625)"/>
       </defs>
       <use xlink:href="#ArialMT-31"/>
       <use xlink:href="#ArialMT-35" x="55.615234"/>
      </g>
     </g>
    </g>
    <g id="xtick_6">
     <g id="line2d_11">
      <path d="M 330.845274 526.74 
L 330.845274 33.36 
" clip-path="url(#p5fc86d6f1c)" style="fill: none; stroke: #cccccc; stroke-width: 0.8; stroke-linecap: round"/>
     </g>
     <g id="line2d_12"/>
     <g id="text_6">
      <!-- 15 -->
      <g style="fill: #262626" transform="translate(325.284337 537.397812) scale(0.1 -0.1)">
       <use xlink:href="#ArialMT-31"/>
       <use xlink:href="#ArialMT-35" x="55.615234"/>
      </g>
     </g>
    </g>
    <g id="xtick_7">
     <g id="line2d_13">
      <path d="M 374.027436 526.74 
L 374.027436 33.36 
" clip-path="url(#p5fc86d6f1c)" style="fill: none; stroke: #cccccc; stroke-width: 0.8; stroke-linecap: round"/>
     </g>
     <g id="line2d_14"/>
     <g id="text_7">
      <!-- 16 -->
      <g style="fill: #262626" transform="translate(368.466498 537.397812) scale(0.1 -0.1)">
       <use xlink:href="#ArialMT-31"/>
       <use xlink:href="#ArialMT-36" x="55.615234"/>
      </g>
     </g>
    </g>
    <g id="xtick_8">
     <g id="line2d_15">
      <path d="M 417.209597 526.74 
L 417.209597 33.36 
" clip-path="url(#p5fc86d6f1c)" style="fill: none; stroke: #cccccc; stroke-width: 0.8; stroke-linecap: round"/>
     </g>
     <g id="line2d_16"/>
     <g id="text_8">
      <!-- 17 -->
      <g style="fill: #262626" transform="translate(411.648659 537.397812) scale(0.1 -0.1)">
       <use xlink:href="#ArialMT-31"/>
       <use xlink:href="#ArialMT-37" x="55.615234"/>
      </g>
     </g>
    </g>
    <g id="xtick_9">
     <g id="line2d_17">
      <path d="M 460.391758 526.74 
L 460.391758 33.36 
" clip-path="url(#p5fc86d6f1c)" style="fill: none; stroke: #cccccc; stroke-width: 0.8; stroke-linecap: round"/>
     </g>
     <g id="line2d_18"/>
     <g id="text_9">
      <!-- 18 -->
      <g style="fill: #262626" transform="translate(454.830821 537.397812) scale(0.1 -0.1)">
       <use xlink:href="#ArialMT-31"/>
       <use xlink:href="#ArialMT-38" x="55.615234"/>
      </g>
     </g>
    </g>
    <g id="xtick_10">
     <g id="line2d_19">
      <path d="M 503.573919 526.74 
L 503.573919 33.36 
" clip-path="url(#p5fc86d6f1c)" style="fill: none; stroke: #cccccc; stroke-width: 0.8; stroke-linecap: round"/>
     </g>
     <g id="line2d_20"/>
     <g id="text_10">
      <!-- 21 -->
      <g style="fill: #262626" transform="translate(498.012982 537.397812) scale(0.1 -0.1)">
       <use xlink:href="#ArialMT-32"/>
       <use xlink:href="#ArialMT-31" x="55.615234"/>
      </g>
     </g>
    </g>
    <g id="xtick_11">
     <g id="line2d_21">
      <path d="M 546.756081 526.74 
L 546.756081 33.36 
" clip-path="url(#p5fc86d6f1c)" style="fill: none; stroke: #cccccc; stroke-width: 0.8; stroke-linecap: round"/>
     </g>
     <g id="line2d_22"/>
     <g id="text_11">
      <!-- 22 -->
      <g style="fill: #262626" transform="translate(541.195143 537.397812) scale(0.1 -0.1)">
       <use xlink:href="#ArialMT-32"/>
       <use xlink:href="#ArialMT-32" x="55.615234"/>
      </g>
     </g>
    </g>
    <g id="xtick_12">
     <g id="line2d_23">
      <path d="M 589.938242 526.74 
L 589.938242 33.36 
" clip-path="url(#p5fc86d6f1c)" style="fill: none; stroke: #cccccc; stroke-width: 0.8; stroke-linecap: round"/>
     </g>
     <g id="line2d_24"/>
     <g id="text_12">
      <!-- 23 -->
      <g style="fill: #262626" transform="translate(584.377304 537.397812) scale(0.1 -0.1)">
       <defs>
        <path id="ArialMT-33" d="M 269 1209 
L 831 1284 
Q 928 806 1161 595 
Q 1394 384 1728 384 
Q 2125 384 2398 659 
Q 2672 934 2672 1341 
Q 2672 1728 2419 1979 
Q 2166 2231 1775 2231 
Q 1616 2231 1378 2169 
L 1441 2663 
Q 1497 2656 1531 2656 
Q 1891 2656 2178 2843 
Q 2466 3031 2466 3422 
Q 2466 3731 2256 3934 
Q 2047 4138 1716 4138 
Q 1388 4138 1169 3931 
Q 950 3725 888 3313 
L 325 3413 
Q 428 3978 793 4289 
Q 1159 4600 1703 4600 
Q 2078 4600 2393 4439 
Q 2709 4278 2876 4000 
Q 3044 3722 3044 3409 
Q 3044 3113 2884 2869 
Q 2725 2625 2413 2481 
Q 2819 2388 3044 2092 
Q 3269 1797 3269 1353 
Q 3269 753 2831 336 
Q 2394 -81 1725 -81 
Q 1122 -81 723 278 
Q 325 638 269 1209 
z
" transform="scale(0.015625)"/>
       </defs>
       <use xlink:href="#ArialMT-32"/>
       <use xlink:href="#ArialMT-33" x="55.615234"/>
      </g>
     </g>
    </g>
    <g id="xtick_13">
     <g id="line2d_25">
      <path d="M 633.120403 526.74 
L 633.120403 33.36 
" clip-path="url(#p5fc86d6f1c)" style="fill: none; stroke: #cccccc; stroke-width: 0.8; stroke-linecap: round"/>
     </g>
     <g id="line2d_26"/>
     <g id="text_13">
      <!-- 23 -->
      <g style="fill: #262626" transform="translate(627.559466 537.397812) scale(0.1 -0.1)">
       <use xlink:href="#ArialMT-32"/>
       <use xlink:href="#ArialMT-33" x="55.615234"/>
      </g>
     </g>
    </g>
    <g id="xtick_14">
     <g id="line2d_27">
      <path d="M 676.302564 526.74 
L 676.302564 33.36 
" clip-path="url(#p5fc86d6f1c)" style="fill: none; stroke: #cccccc; stroke-width: 0.8; stroke-linecap: round"/>
     </g>
     <g id="line2d_28"/>
     <g id="text_14">
      <!-- 23 -->
      <g style="fill: #262626" transform="translate(670.741627 537.397812) scale(0.1 -0.1)">
       <use xlink:href="#ArialMT-32"/>
       <use xlink:href="#ArialMT-33" x="55.615234"/>
      </g>
     </g>
    </g>
    <g id="xtick_15">
     <g id="line2d_29">
      <path d="M 719.484726 526.74 
L 719.484726 33.36 
" clip-path="url(#p5fc86d6f1c)" style="fill: none; stroke: #cccccc; stroke-width: 0.8; stroke-linecap: round"/>
     </g>
     <g id="line2d_30"/>
     <g id="text_15">
      <!-- 24 -->
      <g style="fill: #262626" transform="translate(713.923788 537.397812) scale(0.1 -0.1)">
       <defs>
        <path id="ArialMT-34" d="M 2069 0 
L 2069 1097 
L 81 1097 
L 81 1613 
L 2172 4581 
L 2631 4581 
L 2631 1613 
L 3250 1613 
L 3250 1097 
L 2631 1097 
L 2631 0 
L 2069 0 
z
M 2069 1613 
L 2069 3678 
L 634 1613 
L 2069 1613 
z
" transform="scale(0.015625)"/>
       </defs>
       <use xlink:href="#ArialMT-32"/>
       <use xlink:href="#ArialMT-34" x="55.615234"/>
      </g>
     </g>
    </g>
    <g id="xtick_16">
     <g id="line2d_31">
      <path d="M 762.666887 526.74 
L 762.666887 33.36 
" clip-path="url(#p5fc86d6f1c)" style="fill: none; stroke: #cccccc; stroke-width: 0.8; stroke-linecap: round"/>
     </g>
     <g id="line2d_32"/>
     <g id="text_16">
      <!-- 25 -->
      <g style="fill: #262626" transform="translate(757.105949 537.397812) scale(0.1 -0.1)">
       <use xlink:href="#ArialMT-32"/>
       <use xlink:href="#ArialMT-35" x="55.615234"/>
      </g>
     </g>
    </g>
    <g id="xtick_17">
     <g id="line2d_33">
      <path d="M 805.849048 526.74 
L 805.849048 33.36 
" clip-path="url(#p5fc86d6f1c)" style="fill: none; stroke: #cccccc; stroke-width: 0.8; stroke-linecap: round"/>
     </g>
     <g id="line2d_34"/>
     <g id="text_17">
      <!-- 26 -->
      <g style="fill: #262626" transform="translate(800.288111 537.397812) scale(0.1 -0.1)">
       <use xlink:href="#ArialMT-32"/>
       <use xlink:href="#ArialMT-36" x="55.615234"/>
      </g>
     </g>
    </g>
    <g id="xtick_18">
     <g id="line2d_35">
      <path d="M 849.031209 526.74 
L 849.031209 33.36 
" clip-path="url(#p5fc86d6f1c)" style="fill: none; stroke: #cccccc; stroke-width: 0.8; stroke-linecap: round"/>
     </g>
     <g id="line2d_36"/>
     <g id="text_18">
      <!-- 26 -->
      <g style="fill: #262626" transform="translate(843.470272 537.397812) scale(0.1 -0.1)">
       <use xlink:href="#ArialMT-32"/>
       <use xlink:href="#ArialMT-36" x="55.615234"/>
      </g>
     </g>
    </g>
    <g id="xtick_19">
     <g id="line2d_37">
      <path d="M 892.21337 526.74 
L 892.21337 33.36 
" clip-path="url(#p5fc86d6f1c)" style="fill: none; stroke: #cccccc; stroke-width: 0.8; stroke-linecap: round"/>
     </g>
     <g id="line2d_38"/>
     <g id="text_19">
      <!-- 28 -->
      <g style="fill: #262626" transform="translate(886.652433 537.397812) scale(0.1 -0.1)">
       <use xlink:href="#ArialMT-32"/>
       <use xlink:href="#ArialMT-38" x="55.615234"/>
      </g>
     </g>
    </g>
    <g id="xtick_20">
     <g id="line2d_39">
      <path d="M 935.395532 526.74 
L 935.395532 33.36 
" clip-path="url(#p5fc86d6f1c)" style="fill: none; stroke: #cccccc; stroke-width: 0.8; stroke-linecap: round"/>
     </g>
     <g id="line2d_40"/>
     <g id="text_20">
      <!-- 29 -->
      <g style="fill: #262626" transform="translate(929.834594 537.397812) scale(0.1 -0.1)">
       <defs>
        <path id="ArialMT-39" d="M 350 1059 
L 891 1109 
Q 959 728 1153 556 
Q 1347 384 1650 384 
Q 1909 384 2104 503 
Q 2300 622 2425 820 
Q 2550 1019 2634 1356 
Q 2719 1694 2719 2044 
Q 2719 2081 2716 2156 
Q 2547 1888 2255 1720 
Q 1963 1553 1622 1553 
Q 1053 1553 659 1965 
Q 266 2378 266 3053 
Q 266 3750 677 4175 
Q 1088 4600 1706 4600 
Q 2153 4600 2523 4359 
Q 2894 4119 3086 3673 
Q 3278 3228 3278 2384 
Q 3278 1506 3087 986 
Q 2897 466 2520 194 
Q 2144 -78 1638 -78 
Q 1100 -78 759 220 
Q 419 519 350 1059 
z
M 2653 3081 
Q 2653 3566 2395 3850 
Q 2138 4134 1775 4134 
Q 1400 4134 1122 3828 
Q 844 3522 844 3034 
Q 844 2597 1108 2323 
Q 1372 2050 1759 2050 
Q 2150 2050 2401 2323 
Q 2653 2597 2653 3081 
z
" transform="scale(0.015625)"/>
       </defs>
       <use xlink:href="#ArialMT-32"/>
       <use xlink:href="#ArialMT-39" x="55.615234"/>
      </g>
     </g>
    </g>
    <g id="text_21">
     <!-- Quantidade de Serviços -->
     <g style="fill: #262626" transform="translate(399.856094 559.400625) scale(0.22 -0.22)">
      <defs>
       <path id="Arial-BoldMT-51" d="M 4153 581 
Q 4494 338 4894 194 
L 4553 -459 
Q 4344 -397 4144 -288 
Q 4100 -266 3528 119 
Q 3078 -78 2531 -78 
Q 1475 -78 876 544 
Q 278 1166 278 2291 
Q 278 3413 878 4036 
Q 1478 4659 2506 4659 
Q 3525 4659 4122 4036 
Q 4719 3413 4719 2291 
Q 4719 1697 4553 1247 
Q 4428 903 4153 581 
z
M 3409 1103 
Q 3588 1313 3677 1609 
Q 3766 1906 3766 2291 
Q 3766 3084 3416 3476 
Q 3066 3869 2500 3869 
Q 1934 3869 1582 3475 
Q 1231 3081 1231 2291 
Q 1231 1488 1582 1089 
Q 1934 691 2472 691 
Q 2672 691 2850 756 
Q 2569 941 2278 1044 
L 2538 1572 
Q 2994 1416 3409 1103 
z
" transform="scale(0.015625)"/>
       <path id="Arial-BoldMT-75" d="M 2644 0 
L 2644 497 
Q 2463 231 2167 78 
Q 1872 -75 1544 -75 
Q 1209 -75 943 72 
Q 678 219 559 484 
Q 441 750 441 1219 
L 441 3319 
L 1319 3319 
L 1319 1794 
Q 1319 1094 1367 936 
Q 1416 778 1544 686 
Q 1672 594 1869 594 
Q 2094 594 2272 717 
Q 2450 841 2515 1023 
Q 2581 1206 2581 1919 
L 2581 3319 
L 3459 3319 
L 3459 0 
L 2644 0 
z
" transform="scale(0.015625)"/>
       <path id="Arial-BoldMT-61" d="M 1116 2306 
L 319 2450 
Q 453 2931 781 3162 
Q 1109 3394 1756 3394 
Q 2344 3394 2631 3255 
Q 2919 3116 3036 2902 
Q 3153 2688 3153 2116 
L 3144 1091 
Q 3144 653 3186 445 
Q 3228 238 3344 0 
L 2475 0 
Q 2441 88 2391 259 
Q 2369 338 2359 363 
Q 2134 144 1878 34 
Q 1622 -75 1331 -75 
Q 819 -75 523 203 
Q 228 481 228 906 
Q 228 1188 362 1408 
Q 497 1628 739 1745 
Q 981 1863 1438 1950 
Q 2053 2066 2291 2166 
L 2291 2253 
Q 2291 2506 2166 2614 
Q 2041 2722 1694 2722 
Q 1459 2722 1328 2630 
Q 1197 2538 1116 2306 
z
M 2291 1594 
Q 2122 1538 1756 1459 
Q 1391 1381 1278 1306 
Q 1106 1184 1106 997 
Q 1106 813 1243 678 
Q 1381 544 1594 544 
Q 1831 544 2047 700 
Q 2206 819 2256 991 
Q 2291 1103 2291 1419 
L 2291 1594 
z
" transform="scale(0.015625)"/>
       <path id="Arial-BoldMT-6e" d="M 3478 0 
L 2600 0 
L 2600 1694 
Q 2600 2231 2544 2389 
Q 2488 2547 2361 2634 
Q 2234 2722 2056 2722 
Q 1828 2722 1647 2597 
Q 1466 2472 1398 2265 
Q 1331 2059 1331 1503 
L 1331 0 
L 453 0 
L 453 3319 
L 1269 3319 
L 1269 2831 
Q 1703 3394 2363 3394 
Q 2653 3394 2893 3289 
Q 3134 3184 3257 3021 
Q 3381 2859 3429 2653 
Q 3478 2447 3478 2063 
L 3478 0 
z
" transform="scale(0.015625)"/>
       <path id="Arial-BoldMT-74" d="M 1981 3319 
L 1981 2619 
L 1381 2619 
L 1381 1281 
Q 1381 875 1398 808 
Q 1416 741 1477 697 
Q 1538 653 1625 653 
Q 1747 653 1978 738 
L 2053 56 
Q 1747 -75 1359 -75 
Q 1122 -75 931 4 
Q 741 84 652 211 
Q 563 338 528 553 
Q 500 706 500 1172 
L 500 2619 
L 97 2619 
L 97 3319 
L 500 3319 
L 500 3978 
L 1381 4491 
L 1381 3319 
L 1981 3319 
z
" transform="scale(0.015625)"/>
       <path id="Arial-BoldMT-69" d="M 459 3769 
L 459 4581 
L 1338 4581 
L 1338 3769 
L 459 3769 
z
M 459 0 
L 459 3319 
L 1338 3319 
L 1338 0 
L 459 0 
z
" transform="scale(0.015625)"/>
       <path id="Arial-BoldMT-64" d="M 3503 0 
L 2688 0 
L 2688 488 
Q 2484 203 2207 64 
Q 1931 -75 1650 -75 
Q 1078 -75 670 386 
Q 263 847 263 1672 
Q 263 2516 659 2955 
Q 1056 3394 1663 3394 
Q 2219 3394 2625 2931 
L 2625 4581 
L 3503 4581 
L 3503 0 
z
M 1159 1731 
Q 1159 1200 1306 963 
Q 1519 619 1900 619 
Q 2203 619 2415 876 
Q 2628 1134 2628 1647 
Q 2628 2219 2422 2470 
Q 2216 2722 1894 2722 
Q 1581 2722 1370 2473 
Q 1159 2225 1159 1731 
z
" transform="scale(0.015625)"/>
       <path id="Arial-BoldMT-65" d="M 2381 1056 
L 3256 909 
Q 3088 428 2723 176 
Q 2359 -75 1813 -75 
Q 947 -75 531 491 
Q 203 944 203 1634 
Q 203 2459 634 2926 
Q 1066 3394 1725 3394 
Q 2466 3394 2894 2905 
Q 3322 2416 3303 1406 
L 1103 1406 
Q 1113 1016 1316 798 
Q 1519 581 1822 581 
Q 2028 581 2168 693 
Q 2309 806 2381 1056 
z
M 2431 1944 
Q 2422 2325 2234 2523 
Q 2047 2722 1778 2722 
Q 1491 2722 1303 2513 
Q 1116 2303 1119 1944 
L 2431 1944 
z
" transform="scale(0.015625)"/>
       <path id="Arial-BoldMT-20" transform="scale(0.015625)"/>
       <path id="Arial-BoldMT-53" d="M 231 1491 
L 1131 1578 
Q 1213 1125 1461 912 
Q 1709 700 2131 700 
Q 2578 700 2804 889 
Q 3031 1078 3031 1331 
Q 3031 1494 2936 1608 
Q 2841 1722 2603 1806 
Q 2441 1863 1863 2006 
Q 1119 2191 819 2459 
Q 397 2838 397 3381 
Q 397 3731 595 4036 
Q 794 4341 1167 4500 
Q 1541 4659 2069 4659 
Q 2931 4659 3367 4281 
Q 3803 3903 3825 3272 
L 2900 3231 
Q 2841 3584 2645 3739 
Q 2450 3894 2059 3894 
Q 1656 3894 1428 3728 
Q 1281 3622 1281 3444 
Q 1281 3281 1419 3166 
Q 1594 3019 2269 2859 
Q 2944 2700 3267 2529 
Q 3591 2359 3773 2064 
Q 3956 1769 3956 1334 
Q 3956 941 3737 597 
Q 3519 253 3119 86 
Q 2719 -81 2122 -81 
Q 1253 -81 787 320 
Q 322 722 231 1491 
z
" transform="scale(0.015625)"/>
       <path id="Arial-BoldMT-72" d="M 1300 0 
L 422 0 
L 422 3319 
L 1238 3319 
L 1238 2847 
Q 1447 3181 1614 3287 
Q 1781 3394 1994 3394 
Q 2294 3394 2572 3228 
L 2300 2463 
Q 2078 2606 1888 2606 
Q 1703 2606 1575 2504 
Q 1447 2403 1373 2137 
Q 1300 1872 1300 1025 
L 1300 0 
z
" transform="scale(0.015625)"/>
       <path id="Arial-BoldMT-76" d="M 1372 0 
L 34 3319 
L 956 3319 
L 1581 1625 
L 1763 1059 
Q 1834 1275 1853 1344 
Q 1897 1484 1947 1625 
L 2578 3319 
L 3481 3319 
L 2163 0 
L 1372 0 
z
" transform="scale(0.015625)"/>
       <path id="Arial-BoldMT-e7" d="M 3353 2338 
L 2488 2181 
Q 2444 2441 2289 2572 
Q 2134 2703 1888 2703 
Q 1559 2703 1364 2476 
Q 1169 2250 1169 1719 
Q 1169 1128 1367 884 
Q 1566 641 1900 641 
Q 2150 641 2309 783 
Q 2469 925 2534 1272 
L 3397 1125 
Q 3263 531 2881 228 
Q 2500 -75 1859 -75 
Q 1131 -75 698 384 
Q 266 844 266 1656 
Q 266 2478 700 2936 
Q 1134 3394 1875 3394 
Q 2481 3394 2839 3133 
Q 3197 2872 3353 2338 
z
M 991 -1259 
L 991 -891 
Q 1313 -925 1581 -925 
Q 1860 -925 1994 -825 
Q 2097 -750 2097 -631 
Q 2097 -525 2000 -447 
Q 1903 -369 1700 -369 
Q 1500 -369 1291 -431 
L 1372 -122 
Q 1616 -38 1897 -38 
Q 2288 -38 2491 -209 
Q 2694 -381 2694 -628 
Q 2694 -903 2469 -1075 
Q 2166 -1309 1600 -1309 
Q 1197 -1309 991 -1259 
z
" transform="scale(0.015625)"/>
       <path id="Arial-BoldMT-6f" d="M 256 1706 
Q 256 2144 472 2553 
Q 688 2963 1083 3178 
Q 1478 3394 1966 3394 
Q 2719 3394 3200 2905 
Q 3681 2416 3681 1669 
Q 3681 916 3195 420 
Q 2709 -75 1972 -75 
Q 1516 -75 1102 131 
Q 688 338 472 736 
Q 256 1134 256 1706 
z
M 1156 1659 
Q 1156 1166 1390 903 
Q 1625 641 1969 641 
Q 2313 641 2545 903 
Q 2778 1166 2778 1666 
Q 2778 2153 2545 2415 
Q 2313 2678 1969 2678 
Q 1625 2678 1390 2415 
Q 1156 2153 1156 1659 
z
" transform="scale(0.015625)"/>
       <path id="Arial-BoldMT-73" d="M 150 947 
L 1031 1081 
Q 1088 825 1259 692 
Q 1431 559 1741 559 
Q 2081 559 2253 684 
Q 2369 772 2369 919 
Q 2369 1019 2306 1084 
Q 2241 1147 2013 1200 
Q 950 1434 666 1628 
Q 272 1897 272 2375 
Q 272 2806 612 3100 
Q 953 3394 1669 3394 
Q 2350 3394 2681 3172 
Q 3013 2950 3138 2516 
L 2309 2363 
Q 2256 2556 2107 2659 
Q 1959 2763 1684 2763 
Q 1338 2763 1188 2666 
Q 1088 2597 1088 2488 
Q 1088 2394 1175 2328 
Q 1294 2241 1995 2081 
Q 2697 1922 2975 1691 
Q 3250 1456 3250 1038 
Q 3250 581 2869 253 
Q 2488 -75 1741 -75 
Q 1063 -75 667 200 
Q 272 475 150 947 
z
" transform="scale(0.015625)"/>
      </defs>
      <use xlink:href="#Arial-BoldMT-51"/>
      <use xlink:href="#Arial-BoldMT-75" x="77.783203"/>
      <use xlink:href="#Arial-BoldMT-61" x="138.867188"/>
      <use xlink:href="#Arial-BoldMT-6e" x="194.482422"/>
      <use xlink:href="#Arial-BoldMT-74" x="255.566406"/>
      <use xlink:href="#Arial-BoldMT-69" x="288.867188"/>
      <use xlink:href="#Arial-BoldMT-64" x="316.650391"/>
      <use xlink:href="#Arial-BoldMT-61" x="377.734375"/>
      <use xlink:href="#Arial-BoldMT-64" x="433.349609"/>
      <use xlink:href="#Arial-BoldMT-65" x="494.433594"/>
      <use xlink:href="#Arial-BoldMT-20" x="550.048828"/>
      <use xlink:href="#Arial-BoldMT-64" x="577.832031"/>
      <use xlink:href="#Arial-BoldMT-65" x="638.916016"/>
      <use xlink:href="#Arial-BoldMT-20" x="694.53125"/>
      <use xlink:href="#Arial-BoldMT-53" x="722.314453"/>
      <use xlink:href="#Arial-BoldMT-65" x="789.013672"/>
      <use xlink:href="#Arial-BoldMT-72" x="844.628906"/>
      <use xlink:href="#Arial-BoldMT-76" x="883.544922"/>
      <use xlink:href="#Arial-BoldMT-69" x="939.160156"/>
      <use xlink:href="#Arial-BoldMT-e7" x="966.943359"/>
      <use xlink:href="#Arial-BoldMT-6f" x="1022.558594"/>
      <use xlink:href="#Arial-BoldMT-73" x="1083.642578"/>
     </g>
    </g>
   </g>
   <g id="matplotlib.axis_2">
    <g id="ytick_1">
     <g id="line2d_41">
      <path d="M 53.13 526.74 
L 997.2 526.74 
" clip-path="url(#p5fc86d6f1c)" style="fill: none; stroke-dasharray: 2.96,1.28; stroke-dashoffset: 0; stroke: #cccccc; stroke-opacity: 0.7; stroke-width: 0.8"/>
     </g>
     <g id="line2d_42"/>
     <g id="text_22">
      <!-- 0.0 -->
      <g style="fill: #262626" transform="translate(35.73 530.318906) scale(0.1 -0.1)">
       <defs>
        <path id="ArialMT-30" d="M 266 2259 
Q 266 3072 433 3567 
Q 600 4063 929 4331 
Q 1259 4600 1759 4600 
Q 2128 4600 2406 4451 
Q 2684 4303 2865 4023 
Q 3047 3744 3150 3342 
Q 3253 2941 3253 2259 
Q 3253 1453 3087 958 
Q 2922 463 2592 192 
Q 2263 -78 1759 -78 
Q 1097 -78 719 397 
Q 266 969 266 2259 
z
M 844 2259 
Q 844 1131 1108 757 
Q 1372 384 1759 384 
Q 2147 384 2411 759 
Q 2675 1134 2675 2259 
Q 2675 3391 2411 3762 
Q 2147 4134 1753 4134 
Q 1366 4134 1134 3806 
Q 844 3388 844 2259 
z
" transform="scale(0.015625)"/>
        <path id="ArialMT-2e" d="M 581 0 
L 581 641 
L 1222 641 
L 1222 0 
L 581 0 
z
" transform="scale(0.015625)"/>
       </defs>
       <use xlink:href="#ArialMT-30"/>
       <use xlink:href="#ArialMT-2e" x="55.615234"/>
       <use xlink:href="#ArialMT-30" x="83.398438"/>
      </g>
     </g>
    </g>
    <g id="ytick_2">
     <g id="line2d_43">
      <path d="M 53.13 432.762857 
L 997.2 432.762857 
" clip-path="url(#p5fc86d6f1c)" style="fill: none; stroke-dasharray: 2.96,1.28; stroke-dashoffset: 0; stroke: #cccccc; stroke-opacity: 0.7; stroke-width: 0.8"/>
     </g>
     <g id="line2d_44"/>
     <g id="text_23">
      <!-- 0.1 -->
      <g style="fill: #262626" transform="translate(35.73 436.341763) scale(0.1 -0.1)">
       <use xlink:href="#ArialMT-30"/>
       <use xlink:href="#ArialMT-2e" x="55.615234"/>
       <use xlink:href="#ArialMT-31" x="83.398438"/>
      </g>
     </g>
    </g>
    <g id="ytick_3">
     <g id="line2d_45">
      <path d="M 53.13 338.785714 
L 997.2 338.785714 
" clip-path="url(#p5fc86d6f1c)" style="fill: none; stroke-dasharray: 2.96,1.28; stroke-dashoffset: 0; stroke: #cccccc; stroke-opacity: 0.7; stroke-width: 0.8"/>
     </g>
     <g id="line2d_46"/>
     <g id="text_24">
      <!-- 0.2 -->
      <g style="fill: #262626" transform="translate(35.73 342.364621) scale(0.1 -0.1)">
       <use xlink:href="#ArialMT-30"/>
       <use xlink:href="#ArialMT-2e" x="55.615234"/>
       <use xlink:href="#ArialMT-32" x="83.398438"/>
      </g>
     </g>
    </g>
    <g id="ytick_4">
     <g id="line2d_47">
      <path d="M 53.13 244.808571 
L 997.2 244.808571 
" clip-path="url(#p5fc86d6f1c)" style="fill: none; stroke-dasharray: 2.96,1.28; stroke-dashoffset: 0; stroke: #cccccc; stroke-opacity: 0.7; stroke-width: 0.8"/>
     </g>
     <g id="line2d_48"/>
     <g id="text_25">
      <!-- 0.3 -->
      <g style="fill: #262626" transform="translate(35.73 248.387478) scale(0.1 -0.1)">
       <use xlink:href="#ArialMT-30"/>
       <use xlink:href="#ArialMT-2e" x="55.615234"/>
       <use xlink:href="#ArialMT-33" x="83.398438"/>
      </g>
     </g>
    </g>
    <g id="ytick_5">
     <g id="line2d_49">
      <path d="M 53.13 150.831429 
L 997.2 150.831429 
" clip-path="url(#p5fc86d6f1c)" style="fill: none; stroke-dasharray: 2.96,1.28; stroke-dashoffset: 0; stroke: #cccccc; stroke-opacity: 0.7; stroke-width: 0.8"/>
     </g>
     <g id="line2d_50"/>
     <g id="text_26">
      <!-- 0.4 -->
      <g style="fill: #262626" transform="translate(35.73 154.410335) scale(0.1 -0.1)">
       <use xlink:href="#ArialMT-30"/>
       <use xlink:href="#ArialMT-2e" x="55.615234"/>
       <use xlink:href="#ArialMT-34" x="83.398438"/>
      </g>
     </g>
    </g>
    <g id="ytick_6">
     <g id="line2d_51">
      <path d="M 53.13 56.854286 
L 997.2 56.854286 
" clip-path="url(#p5fc86d6f1c)" style="fill: none; stroke-dasharray: 2.96,1.28; stroke-dashoffset: 0; stroke: #cccccc; stroke-opacity: 0.7; stroke-width: 0.8"/>
     </g>
     <g id="line2d_52"/>
     <g id="text_27">
      <!-- 0.5 -->
      <g style="fill: #262626" transform="translate(35.73 60.433192) scale(0.1 -0.1)">
       <use xlink:href="#ArialMT-30"/>
       <use xlink:href="#ArialMT-2e" x="55.615234"/>
       <use xlink:href="#ArialMT-35" x="83.398438"/>
      </g>
     </g>
    </g>
    <g id="text_28">
     <!-- Tempo (normalizado) -->
     <g style="fill: #262626" transform="translate(27.099688 390.457344) rotate(-90) scale(0.22 -0.22)">
      <defs>
       <path id="Arial-BoldMT-54" d="M 1497 0 
L 1497 3806 
L 138 3806 
L 138 4581 
L 3778 4581 
L 3778 3806 
L 2422 3806 
L 2422 0 
L 1497 0 
z
" transform="scale(0.015625)"/>
       <path id="Arial-BoldMT-6d" d="M 394 3319 
L 1203 3319 
L 1203 2866 
Q 1638 3394 2238 3394 
Q 2556 3394 2790 3262 
Q 3025 3131 3175 2866 
Q 3394 3131 3647 3262 
Q 3900 3394 4188 3394 
Q 4553 3394 4806 3245 
Q 5059 3097 5184 2809 
Q 5275 2597 5275 2122 
L 5275 0 
L 4397 0 
L 4397 1897 
Q 4397 2391 4306 2534 
Q 4184 2722 3931 2722 
Q 3747 2722 3584 2609 
Q 3422 2497 3350 2280 
Q 3278 2063 3278 1594 
L 3278 0 
L 2400 0 
L 2400 1819 
Q 2400 2303 2353 2443 
Q 2306 2584 2207 2653 
Q 2109 2722 1941 2722 
Q 1738 2722 1575 2612 
Q 1413 2503 1342 2297 
Q 1272 2091 1272 1613 
L 1272 0 
L 394 0 
L 394 3319 
z
" transform="scale(0.015625)"/>
       <path id="Arial-BoldMT-70" d="M 434 3319 
L 1253 3319 
L 1253 2831 
Q 1413 3081 1684 3237 
Q 1956 3394 2288 3394 
Q 2866 3394 3269 2941 
Q 3672 2488 3672 1678 
Q 3672 847 3265 386 
Q 2859 -75 2281 -75 
Q 2006 -75 1782 34 
Q 1559 144 1313 409 
L 1313 -1263 
L 434 -1263 
L 434 3319 
z
M 1303 1716 
Q 1303 1156 1525 889 
Q 1747 622 2066 622 
Q 2372 622 2575 867 
Q 2778 1113 2778 1672 
Q 2778 2194 2568 2447 
Q 2359 2700 2050 2700 
Q 1728 2700 1515 2451 
Q 1303 2203 1303 1716 
z
" transform="scale(0.015625)"/>
       <path id="Arial-BoldMT-28" d="M 1916 -1347 
L 1313 -1347 
Q 834 -625 584 153 
Q 334 931 334 1659 
Q 334 2563 644 3369 
Q 913 4069 1325 4659 
L 1925 4659 
Q 1497 3713 1336 3048 
Q 1175 2384 1175 1641 
Q 1175 1128 1270 590 
Q 1366 53 1531 -431 
Q 1641 -750 1916 -1347 
z
" transform="scale(0.015625)"/>
       <path id="Arial-BoldMT-6c" d="M 459 0 
L 459 4581 
L 1338 4581 
L 1338 0 
L 459 0 
z
" transform="scale(0.015625)"/>
       <path id="Arial-BoldMT-7a" d="M 106 0 
L 106 684 
L 1350 2113 
Q 1656 2463 1803 2609 
Q 1650 2600 1400 2597 
L 228 2591 
L 228 3319 
L 2972 3319 
L 2972 2697 
L 1703 1234 
L 1256 750 
Q 1622 772 1709 772 
L 3069 772 
L 3069 0 
L 106 0 
z
" transform="scale(0.015625)"/>
       <path id="Arial-BoldMT-29" d="M 216 -1347 
Q 475 -791 581 -494 
Q 688 -197 778 190 
Q 869 578 912 926 
Q 956 1275 956 1641 
Q 956 2384 797 3048 
Q 638 3713 209 4659 
L 806 4659 
Q 1278 3988 1539 3234 
Q 1800 2481 1800 1706 
Q 1800 1053 1594 306 
Q 1359 -531 822 -1347 
L 216 -1347 
z
" transform="scale(0.015625)"/>
      </defs>
      <use xlink:href="#Arial-BoldMT-54"/>
      <use xlink:href="#Arial-BoldMT-65" x="53.708984"/>
      <use xlink:href="#Arial-BoldMT-6d" x="109.324219"/>
      <use xlink:href="#Arial-BoldMT-70" x="198.240234"/>
      <use xlink:href="#Arial-BoldMT-6f" x="259.324219"/>
      <use xlink:href="#Arial-BoldMT-20" x="320.408203"/>
      <use xlink:href="#Arial-BoldMT-28" x="348.191406"/>
      <use xlink:href="#Arial-BoldMT-6e" x="381.492188"/>
      <use xlink:href="#Arial-BoldMT-6f" x="442.576172"/>
      <use xlink:href="#Arial-BoldMT-72" x="503.660156"/>
      <use xlink:href="#Arial-BoldMT-6d" x="542.576172"/>
      <use xlink:href="#Arial-BoldMT-61" x="631.492188"/>
      <use xlink:href="#Arial-BoldMT-6c" x="687.107422"/>
      <use xlink:href="#Arial-BoldMT-69" x="714.890625"/>
      <use xlink:href="#Arial-BoldMT-7a" x="742.673828"/>
      <use xlink:href="#Arial-BoldMT-61" x="792.673828"/>
      <use xlink:href="#Arial-BoldMT-64" x="848.289062"/>
      <use xlink:href="#Arial-BoldMT-6f" x="909.373047"/>
      <use xlink:href="#Arial-BoldMT-29" x="970.457031"/>
     </g>
    </g>
   </g>
   <g id="patch_3">
    <path d="M 96.042273 526.74 
L 111.156029 526.74 
L 111.156029 526.707785 
L 96.042273 526.707785 
z
" clip-path="url(#p5fc86d6f1c)" style="fill: #1f77b4; stroke: #000000; stroke-width: 0.3; stroke-linejoin: miter"/>
   </g>
   <g id="patch_4">
    <path d="M 139.224434 526.74 
L 154.33819 526.74 
L 154.33819 526.74 
L 139.224434 526.74 
z
" clip-path="url(#p5fc86d6f1c)" style="fill: #1f77b4; stroke: #000000; stroke-width: 0.3; stroke-linejoin: miter"/>
   </g>
   <g id="patch_5">
    <path d="M 182.406595 526.74 
L 197.520352 526.74 
L 197.520352 526.647109 
L 182.406595 526.647109 
z
" clip-path="url(#p5fc86d6f1c)" style="fill: #1f77b4; stroke: #000000; stroke-width: 0.3; stroke-linejoin: miter"/>
   </g>
   <g id="patch_6">
    <path d="M 225.588756 526.74 
L 240.702513 526.74 
L 240.702513 526.140691 
L 225.588756 526.140691 
z
" clip-path="url(#p5fc86d6f1c)" style="fill: #1f77b4; stroke: #000000; stroke-width: 0.3; stroke-linejoin: miter"/>
   </g>
   <g id="patch_7">
    <path d="M 268.770918 526.74 
L 283.884674 526.74 
L 283.884674 526.080872 
L 268.770918 526.080872 
z
" clip-path="url(#p5fc86d6f1c)" style="fill: #1f77b4; stroke: #000000; stroke-width: 0.3; stroke-linejoin: miter"/>
   </g>
   <g id="patch_8">
    <path d="M 311.953079 526.74 
L 327.066835 526.74 
L 327.066835 525.830594 
L 311.953079 525.830594 
z
" clip-path="url(#p5fc86d6f1c)" style="fill: #1f77b4; stroke: #000000; stroke-width: 0.3; stroke-linejoin: miter"/>
   </g>
   <g id="patch_9">
    <path d="M 355.13524 526.74 
L 370.248997 526.74 
L 370.248997 526.067827 
L 355.13524 526.067827 
z
" clip-path="url(#p5fc86d6f1c)" style="fill: #1f77b4; stroke: #000000; stroke-width: 0.3; stroke-linejoin: miter"/>
   </g>
   <g id="patch_10">
    <path d="M 398.317401 526.74 
L 413.431158 526.74 
L 413.431158 526.063018 
L 398.317401 526.063018 
z
" clip-path="url(#p5fc86d6f1c)" style="fill: #1f77b4; stroke: #000000; stroke-width: 0.3; stroke-linejoin: miter"/>
   </g>
   <g id="patch_11">
    <path d="M 441.499563 526.74 
L 456.613319 526.74 
L 456.613319 525.36423 
L 441.499563 525.36423 
z
" clip-path="url(#p5fc86d6f1c)" style="fill: #1f77b4; stroke: #000000; stroke-width: 0.3; stroke-linejoin: miter"/>
   </g>
   <g id="patch_12">
    <path d="M 484.681724 526.74 
L 499.79548 526.74 
L 499.79548 525.735595 
L 484.681724 525.735595 
z
" clip-path="url(#p5fc86d6f1c)" style="fill: #1f77b4; stroke: #000000; stroke-width: 0.3; stroke-linejoin: miter"/>
   </g>
   <g id="patch_13">
    <path d="M 527.863885 526.74 
L 542.977642 526.74 
L 542.977642 525.477873 
L 527.863885 525.477873 
z
" clip-path="url(#p5fc86d6f1c)" style="fill: #1f77b4; stroke: #000000; stroke-width: 0.3; stroke-linejoin: miter"/>
   </g>
   <g id="patch_14">
    <path d="M 571.046046 526.74 
L 586.159803 526.74 
L 586.159803 525.103478 
L 571.046046 525.103478 
z
" clip-path="url(#p5fc86d6f1c)" style="fill: #1f77b4; stroke: #000000; stroke-width: 0.3; stroke-linejoin: miter"/>
   </g>
   <g id="patch_15">
    <path d="M 614.228208 526.74 
L 629.341964 526.74 
L 629.341964 525.242682 
L 614.228208 525.242682 
z
" clip-path="url(#p5fc86d6f1c)" style="fill: #1f77b4; stroke: #000000; stroke-width: 0.3; stroke-linejoin: miter"/>
   </g>
   <g id="patch_16">
    <path d="M 657.410369 526.74 
L 672.524125 526.74 
L 672.524125 525.527151 
L 657.410369 525.527151 
z
" clip-path="url(#p5fc86d6f1c)" style="fill: #1f77b4; stroke: #000000; stroke-width: 0.3; stroke-linejoin: miter"/>
   </g>
   <g id="patch_17">
    <path d="M 700.59253 526.74 
L 715.706286 526.74 
L 715.706286 525.234908 
L 700.59253 525.234908 
z
" clip-path="url(#p5fc86d6f1c)" style="fill: #1f77b4; stroke: #000000; stroke-width: 0.3; stroke-linejoin: miter"/>
   </g>
   <g id="patch_18">
    <path d="M 743.774691 526.74 
L 758.888448 526.74 
L 758.888448 525.332608 
L 743.774691 525.332608 
z
" clip-path="url(#p5fc86d6f1c)" style="fill: #1f77b4; stroke: #000000; stroke-width: 0.3; stroke-linejoin: miter"/>
   </g>
   <g id="patch_19">
    <path d="M 786.956852 526.74 
L 802.070609 526.74 
L 802.070609 525.227266 
L 786.956852 525.227266 
z
" clip-path="url(#p5fc86d6f1c)" style="fill: #1f77b4; stroke: #000000; stroke-width: 0.3; stroke-linejoin: miter"/>
   </g>
   <g id="patch_20">
    <path d="M 830.139014 526.74 
L 845.25277 526.74 
L 845.25277 525.139711 
L 830.139014 525.139711 
z
" clip-path="url(#p5fc86d6f1c)" style="fill: #1f77b4; stroke: #000000; stroke-width: 0.3; stroke-linejoin: miter"/>
   </g>
   <g id="patch_21">
    <path d="M 873.321175 526.74 
L 888.434931 526.74 
L 888.434931 525.327403 
L 873.321175 525.327403 
z
" clip-path="url(#p5fc86d6f1c)" style="fill: #1f77b4; stroke: #000000; stroke-width: 0.3; stroke-linejoin: miter"/>
   </g>
   <g id="patch_22">
    <path d="M 916.503336 526.74 
L 931.617093 526.74 
L 931.617093 524.459567 
L 916.503336 524.459567 
z
" clip-path="url(#p5fc86d6f1c)" style="fill: #1f77b4; stroke: #000000; stroke-width: 0.3; stroke-linejoin: miter"/>
   </g>
   <g id="patch_23">
    <path d="M 107.37759 526.74 
L 122.491346 526.74 
L 122.491346 318.381064 
L 107.37759 318.381064 
z
" clip-path="url(#p5fc86d6f1c)" style="fill: #ff7f0e; stroke: #000000; stroke-width: 0.3; stroke-linejoin: miter"/>
   </g>
   <g id="patch_24">
    <path d="M 150.559751 526.74 
L 165.673508 526.74 
L 165.673508 385.625068 
L 150.559751 385.625068 
z
" clip-path="url(#p5fc86d6f1c)" style="fill: #ff7f0e; stroke: #000000; stroke-width: 0.3; stroke-linejoin: miter"/>
   </g>
   <g id="patch_25">
    <path d="M 193.741913 526.74 
L 208.855669 526.74 
L 208.855669 367.74981 
L 193.741913 367.74981 
z
" clip-path="url(#p5fc86d6f1c)" style="fill: #ff7f0e; stroke: #000000; stroke-width: 0.3; stroke-linejoin: miter"/>
   </g>
   <g id="patch_26">
    <path d="M 236.924074 526.74 
L 252.03783 526.74 
L 252.03783 350.50107 
L 236.924074 350.50107 
z
" clip-path="url(#p5fc86d6f1c)" style="fill: #ff7f0e; stroke: #000000; stroke-width: 0.3; stroke-linejoin: miter"/>
   </g>
   <g id="patch_27">
    <path d="M 280.106235 526.74 
L 295.219991 526.74 
L 295.219991 344.193004 
L 280.106235 344.193004 
z
" clip-path="url(#p5fc86d6f1c)" style="fill: #ff7f0e; stroke: #000000; stroke-width: 0.3; stroke-linejoin: miter"/>
   </g>
   <g id="patch_28">
    <path d="M 323.288396 526.74 
L 338.402153 526.74 
L 338.402153 282.533178 
L 323.288396 282.533178 
z
" clip-path="url(#p5fc86d6f1c)" style="fill: #ff7f0e; stroke: #000000; stroke-width: 0.3; stroke-linejoin: miter"/>
   </g>
   <g id="patch_29">
    <path d="M 366.470557 526.74 
L 381.584314 526.74 
L 381.584314 136.110171 
L 366.470557 136.110171 
z
" clip-path="url(#p5fc86d6f1c)" style="fill: #ff7f0e; stroke: #000000; stroke-width: 0.3; stroke-linejoin: miter"/>
   </g>
   <g id="patch_30">
    <path d="M 409.652719 526.74 
L 424.766475 526.74 
L 424.766475 358.275491 
L 409.652719 358.275491 
z
" clip-path="url(#p5fc86d6f1c)" style="fill: #ff7f0e; stroke: #000000; stroke-width: 0.3; stroke-linejoin: miter"/>
   </g>
   <g id="patch_31">
    <path d="M 452.83488 526.74 
L 467.948636 526.74 
L 467.948636 253.454122 
L 452.83488 253.454122 
z
" clip-path="url(#p5fc86d6f1c)" style="fill: #ff7f0e; stroke: #000000; stroke-width: 0.3; stroke-linejoin: miter"/>
   </g>
   <g id="patch_32">
    <path d="M 496.017041 526.74 
L 511.130798 526.74 
L 511.130798 307.146697 
L 496.017041 307.146697 
z
" clip-path="url(#p5fc86d6f1c)" style="fill: #ff7f0e; stroke: #000000; stroke-width: 0.3; stroke-linejoin: miter"/>
   </g>
   <g id="patch_33">
    <path d="M 539.199202 526.74 
L 554.312959 526.74 
L 554.312959 138.592657 
L 539.199202 138.592657 
z
" clip-path="url(#p5fc86d6f1c)" style="fill: #ff7f0e; stroke: #000000; stroke-width: 0.3; stroke-linejoin: miter"/>
   </g>
   <g id="patch_34">
    <path d="M 582.381364 526.74 
L 597.49512 526.74 
L 597.49512 281.288246 
L 582.381364 281.288246 
z
" clip-path="url(#p5fc86d6f1c)" style="fill: #ff7f0e; stroke: #000000; stroke-width: 0.3; stroke-linejoin: miter"/>
   </g>
   <g id="patch_35">
    <path d="M 625.563525 526.74 
L 640.677281 526.74 
L 640.677281 56.854286 
L 625.563525 56.854286 
z
" clip-path="url(#p5fc86d6f1c)" style="fill: #ff7f0e; stroke: #000000; stroke-width: 0.3; stroke-linejoin: miter"/>
   </g>
   <g id="patch_36">
    <path d="M 668.745686 526.74 
L 683.859443 526.74 
L 683.859443 319.340407 
L 668.745686 319.340407 
z
" clip-path="url(#p5fc86d6f1c)" style="fill: #ff7f0e; stroke: #000000; stroke-width: 0.3; stroke-linejoin: miter"/>
   </g>
   <g id="patch_37">
    <path d="M 711.927847 526.74 
L 727.041604 526.74 
L 727.041604 306.120157 
L 711.927847 306.120157 
z
" clip-path="url(#p5fc86d6f1c)" style="fill: #ff7f0e; stroke: #000000; stroke-width: 0.3; stroke-linejoin: miter"/>
   </g>
   <g id="patch_38">
    <path d="M 755.110009 526.74 
L 770.223765 526.74 
L 770.223765 167.955787 
L 755.110009 167.955787 
z
" clip-path="url(#p5fc86d6f1c)" style="fill: #ff7f0e; stroke: #000000; stroke-width: 0.3; stroke-linejoin: miter"/>
   </g>
   <g id="patch_39">
    <path d="M 798.29217 526.74 
L 813.405926 526.74 
L 813.405926 146.02885 
L 798.29217 146.02885 
z
" clip-path="url(#p5fc86d6f1c)" style="fill: #ff7f0e; stroke: #000000; stroke-width: 0.3; stroke-linejoin: miter"/>
   </g>
   <g id="patch_40">
    <path d="M 841.474331 526.74 
L 856.588087 526.74 
L 856.588087 119.480175 
L 841.474331 119.480175 
z
" clip-path="url(#p5fc86d6f1c)" style="fill: #ff7f0e; stroke: #000000; stroke-width: 0.3; stroke-linejoin: miter"/>
   </g>
   <g id="patch_41">
    <path d="M 884.656492 526.74 
L 899.770249 526.74 
L 899.770249 278.948258 
L 884.656492 278.948258 
z
" clip-path="url(#p5fc86d6f1c)" style="fill: #ff7f0e; stroke: #000000; stroke-width: 0.3; stroke-linejoin: miter"/>
   </g>
   <g id="patch_42">
    <path d="M 927.838654 526.74 
L 942.95241 526.74 
L 942.95241 220.837052 
L 927.838654 220.837052 
z
" clip-path="url(#p5fc86d6f1c)" style="fill: #ff7f0e; stroke: #000000; stroke-width: 0.3; stroke-linejoin: miter"/>
   </g>
   <g id="patch_43">
    <path d="M 118.712907 526.74 
L 133.826664 526.74 
L 133.826664 526.019735 
L 118.712907 526.019735 
z
" clip-path="url(#p5fc86d6f1c)" style="fill: #2ca02c; stroke: #000000; stroke-width: 0.3; stroke-linejoin: miter"/>
   </g>
   <g id="patch_44">
    <path d="M 161.895069 526.74 
L 177.008825 526.74 
L 177.008825 526.114273 
L 161.895069 526.114273 
z
" clip-path="url(#p5fc86d6f1c)" style="fill: #2ca02c; stroke: #000000; stroke-width: 0.3; stroke-linejoin: miter"/>
   </g>
   <g id="patch_45">
    <path d="M 205.07723 526.74 
L 220.190986 526.74 
L 220.190986 525.692312 
L 205.07723 525.692312 
z
" clip-path="url(#p5fc86d6f1c)" style="fill: #2ca02c; stroke: #000000; stroke-width: 0.3; stroke-linejoin: miter"/>
   </g>
   <g id="patch_46">
    <path d="M 248.259391 526.74 
L 263.373148 526.74 
L 263.373148 524.894243 
L 248.259391 524.894243 
z
" clip-path="url(#p5fc86d6f1c)" style="fill: #2ca02c; stroke: #000000; stroke-width: 0.3; stroke-linejoin: miter"/>
   </g>
   <g id="patch_47">
    <path d="M 291.441552 526.74 
L 306.555309 526.74 
L 306.555309 524.575582 
L 291.441552 524.575582 
z
" clip-path="url(#p5fc86d6f1c)" style="fill: #2ca02c; stroke: #000000; stroke-width: 0.3; stroke-linejoin: miter"/>
   </g>
   <g id="patch_48">
    <path d="M 334.623714 526.74 
L 349.73747 526.74 
L 349.73747 524.212584 
L 334.623714 524.212584 
z
" clip-path="url(#p5fc86d6f1c)" style="fill: #2ca02c; stroke: #000000; stroke-width: 0.3; stroke-linejoin: miter"/>
   </g>
   <g id="patch_49">
    <path d="M 377.805875 526.74 
L 392.919631 526.74 
L 392.919631 524.03148 
L 377.805875 524.03148 
z
" clip-path="url(#p5fc86d6f1c)" style="fill: #2ca02c; stroke: #000000; stroke-width: 0.3; stroke-linejoin: miter"/>
   </g>
   <g id="patch_50">
    <path d="M 420.988036 526.74 
L 436.101792 526.74 
L 436.101792 524.504563 
L 420.988036 524.504563 
z
" clip-path="url(#p5fc86d6f1c)" style="fill: #2ca02c; stroke: #000000; stroke-width: 0.3; stroke-linejoin: miter"/>
   </g>
   <g id="patch_51">
    <path d="M 464.170197 526.74 
L 479.283954 526.74 
L 479.283954 524.113434 
L 464.170197 524.113434 
z
" clip-path="url(#p5fc86d6f1c)" style="fill: #2ca02c; stroke: #000000; stroke-width: 0.3; stroke-linejoin: miter"/>
   </g>
   <g id="patch_52">
    <path d="M 507.352358 526.74 
L 522.466115 526.74 
L 522.466115 523.600164 
L 507.352358 523.600164 
z
" clip-path="url(#p5fc86d6f1c)" style="fill: #2ca02c; stroke: #000000; stroke-width: 0.3; stroke-linejoin: miter"/>
   </g>
   <g id="patch_53">
    <path d="M 550.53452 526.74 
L 565.648276 526.74 
L 565.648276 523.460696 
L 550.53452 523.460696 
z
" clip-path="url(#p5fc86d6f1c)" style="fill: #2ca02c; stroke: #000000; stroke-width: 0.3; stroke-linejoin: miter"/>
   </g>
   <g id="patch_54">
    <path d="M 593.716681 526.74 
L 608.830437 526.74 
L 608.830437 523.22175 
L 593.716681 523.22175 
z
" clip-path="url(#p5fc86d6f1c)" style="fill: #2ca02c; stroke: #000000; stroke-width: 0.3; stroke-linejoin: miter"/>
   </g>
   <g id="patch_55">
    <path d="M 636.898842 526.74 
L 652.012599 526.74 
L 652.012599 523.115947 
L 636.898842 523.115947 
z
" clip-path="url(#p5fc86d6f1c)" style="fill: #2ca02c; stroke: #000000; stroke-width: 0.3; stroke-linejoin: miter"/>
   </g>
   <g id="patch_56">
    <path d="M 680.081003 526.74 
L 695.19476 526.74 
L 695.19476 523.548185 
L 680.081003 523.548185 
z
" clip-path="url(#p5fc86d6f1c)" style="fill: #2ca02c; stroke: #000000; stroke-width: 0.3; stroke-linejoin: miter"/>
   </g>
   <g id="patch_57">
    <path d="M 723.263165 526.74 
L 738.376921 526.74 
L 738.376921 523.054481 
L 723.263165 523.054481 
z
" clip-path="url(#p5fc86d6f1c)" style="fill: #2ca02c; stroke: #000000; stroke-width: 0.3; stroke-linejoin: miter"/>
   </g>
   <g id="patch_58">
    <path d="M 766.445326 526.74 
L 781.559082 526.74 
L 781.559082 522.944066 
L 766.445326 522.944066 
z
" clip-path="url(#p5fc86d6f1c)" style="fill: #2ca02c; stroke: #000000; stroke-width: 0.3; stroke-linejoin: miter"/>
   </g>
   <g id="patch_59">
    <path d="M 809.627487 526.74 
L 824.741244 526.74 
L 824.741244 522.805784 
L 809.627487 522.805784 
z
" clip-path="url(#p5fc86d6f1c)" style="fill: #2ca02c; stroke: #000000; stroke-width: 0.3; stroke-linejoin: miter"/>
   </g>
   <g id="patch_60">
    <path d="M 852.809648 526.74 
L 867.923405 526.74 
L 867.923405 522.732526 
L 852.809648 522.732526 
z
" clip-path="url(#p5fc86d6f1c)" style="fill: #2ca02c; stroke: #000000; stroke-width: 0.3; stroke-linejoin: miter"/>
   </g>
   <g id="patch_61">
    <path d="M 895.99181 526.74 
L 911.105566 526.74 
L 911.105566 523.282689 
L 895.99181 523.282689 
z
" clip-path="url(#p5fc86d6f1c)" style="fill: #2ca02c; stroke: #000000; stroke-width: 0.3; stroke-linejoin: miter"/>
   </g>
   <g id="patch_62">
    <path d="M 939.173971 526.74 
L 954.287727 526.74 
L 954.287727 522.296665 
L 939.173971 522.296665 
z
" clip-path="url(#p5fc86d6f1c)" style="fill: #2ca02c; stroke: #000000; stroke-width: 0.3; stroke-linejoin: miter"/>
   </g>
   <g id="patch_63">
    <path d="M 53.13 526.74 
L 53.13 33.36 
" style="fill: none; stroke: #cccccc; stroke-linejoin: miter; stroke-linecap: square"/>
   </g>
   <g id="patch_64">
    <path d="M 997.2 526.74 
L 997.2 33.36 
" style="fill: none; stroke: #cccccc; stroke-linejoin: miter; stroke-linecap: square"/>
   </g>
   <g id="patch_65">
    <path d="M 53.13 526.74 
L 997.2 526.74 
" style="fill: none; stroke: #cccccc; stroke-linejoin: miter; stroke-linecap: square"/>
   </g>
   <g id="patch_66">
    <path d="M 53.13 33.36 
L 997.2 33.36 
" style="fill: none; stroke: #cccccc; stroke-linejoin: miter; stroke-linecap: square"/>
   </g>
   <g id="text_29">
    <!-- Tempo de Decisão (normalizado) -->
    <g style="fill: #262626" transform="translate(353.623438 27.36) scale(0.22 -0.22)">
     <defs>
      <path id="Arial-BoldMT-44" d="M 463 4581 
L 2153 4581 
Q 2725 4581 3025 4494 
Q 3428 4375 3715 4072 
Q 4003 3769 4153 3330 
Q 4303 2891 4303 2247 
Q 4303 1681 4163 1272 
Q 3991 772 3672 463 
Q 3431 228 3022 97 
Q 2716 0 2203 0 
L 463 0 
L 463 4581 
z
M 1388 3806 
L 1388 772 
L 2078 772 
Q 2466 772 2638 816 
Q 2863 872 3011 1006 
Q 3159 1141 3253 1448 
Q 3347 1756 3347 2288 
Q 3347 2819 3253 3103 
Q 3159 3388 2990 3547 
Q 2822 3706 2563 3763 
Q 2369 3806 1803 3806 
L 1388 3806 
z
" transform="scale(0.015625)"/>
      <path id="Arial-BoldMT-63" d="M 3353 2338 
L 2488 2181 
Q 2444 2441 2289 2572 
Q 2134 2703 1888 2703 
Q 1559 2703 1364 2476 
Q 1169 2250 1169 1719 
Q 1169 1128 1367 884 
Q 1566 641 1900 641 
Q 2150 641 2309 783 
Q 2469 925 2534 1272 
L 3397 1125 
Q 3263 531 2881 228 
Q 2500 -75 1859 -75 
Q 1131 -75 698 384 
Q 266 844 266 1656 
Q 266 2478 700 2936 
Q 1134 3394 1875 3394 
Q 2481 3394 2839 3133 
Q 3197 2872 3353 2338 
z
" transform="scale(0.015625)"/>
      <path id="Arial-BoldMT-e3" d="M 1116 2306 
L 319 2450 
Q 453 2931 781 3162 
Q 1109 3394 1756 3394 
Q 2344 3394 2631 3255 
Q 2919 3116 3036 2902 
Q 3153 2688 3153 2116 
L 3144 1091 
Q 3144 653 3186 445 
Q 3228 238 3344 0 
L 2475 0 
Q 2441 88 2391 259 
Q 2369 338 2359 363 
Q 2134 144 1878 34 
Q 1622 -75 1331 -75 
Q 819 -75 523 203 
Q 228 481 228 906 
Q 228 1188 362 1408 
Q 497 1628 739 1745 
Q 981 1863 1438 1950 
Q 2053 2066 2291 2166 
L 2291 2253 
Q 2291 2506 2166 2614 
Q 2041 2722 1694 2722 
Q 1459 2722 1328 2630 
Q 1197 2538 1116 2306 
z
M 2291 1594 
Q 2122 1538 1756 1459 
Q 1391 1381 1278 1306 
Q 1106 1184 1106 997 
Q 1106 813 1243 678 
Q 1381 544 1594 544 
Q 1831 544 2047 700 
Q 2206 819 2256 991 
Q 2291 1103 2291 1419 
L 2291 1594 
z
M 1107 3766 
L 707 3766 
Q 703 3838 703 3878 
Q 703 4206 862 4382 
Q 1022 4559 1272 4559 
Q 1382 4559 1475 4536 
Q 1569 4513 1817 4402 
Q 2066 4291 2207 4291 
Q 2307 4291 2374 4353 
Q 2441 4416 2460 4563 
L 2866 4563 
Q 2863 4141 2708 3959 
Q 2553 3778 2310 3778 
Q 2203 3778 2100 3800 
Q 2028 3819 1740 3928 
Q 1453 4038 1322 4038 
Q 1222 4038 1166 3977 
Q 1110 3916 1107 3766 
z
" transform="scale(0.015625)"/>
     </defs>
     <use xlink:href="#Arial-BoldMT-54"/>
     <use xlink:href="#Arial-BoldMT-65" x="53.708984"/>
     <use xlink:href="#Arial-BoldMT-6d" x="109.324219"/>
     <use xlink:href="#Arial-BoldMT-70" x="198.240234"/>
     <use xlink:href="#Arial-BoldMT-6f" x="259.324219"/>
     <use xlink:href="#Arial-BoldMT-20" x="320.408203"/>
     <use xlink:href="#Arial-BoldMT-64" x="348.191406"/>
     <use xlink:href="#Arial-BoldMT-65" x="409.275391"/>
     <use xlink:href="#Arial-BoldMT-20" x="464.890625"/>
     <use xlink:href="#Arial-BoldMT-44" x="492.673828"/>
     <use xlink:href="#Arial-BoldMT-65" x="564.890625"/>
     <use xlink:href="#Arial-BoldMT-63" x="620.505859"/>
     <use xlink:href="#Arial-BoldMT-69" x="676.121094"/>
     <use xlink:href="#Arial-BoldMT-73" x="703.904297"/>
     <use xlink:href="#Arial-BoldMT-e3" x="759.519531"/>
     <use xlink:href="#Arial-BoldMT-6f" x="815.134766"/>
     <use xlink:href="#Arial-BoldMT-20" x="876.21875"/>
     <use xlink:href="#Arial-BoldMT-28" x="904.001953"/>
     <use xlink:href="#Arial-BoldMT-6e" x="937.302734"/>
     <use xlink:href="#Arial-BoldMT-6f" x="998.386719"/>
     <use xlink:href="#Arial-BoldMT-72" x="1059.470703"/>
     <use xlink:href="#Arial-BoldMT-6d" x="1098.386719"/>
     <use xlink:href="#Arial-BoldMT-61" x="1187.302734"/>
     <use xlink:href="#Arial-BoldMT-6c" x="1242.917969"/>
     <use xlink:href="#Arial-BoldMT-69" x="1270.701172"/>
     <use xlink:href="#Arial-BoldMT-7a" x="1298.484375"/>
     <use xlink:href="#Arial-BoldMT-61" x="1348.484375"/>
     <use xlink:href="#Arial-BoldMT-64" x="1404.099609"/>
     <use xlink:href="#Arial-BoldMT-6f" x="1465.183594"/>
     <use xlink:href="#Arial-BoldMT-29" x="1526.267578"/>
    </g>
   </g>
   <g id="legend_1">
    <g id="patch_67">
     <path d="M 72.93 68.907188 
L 116.93 68.907188 
L 116.93 53.507188 
L 72.93 53.507188 
z
" style="fill: #1f77b4; stroke: #000000; stroke-width: 0.3; stroke-linejoin: miter"/>
    </g>
    <g id="text_30">
     <!-- Heurística H-1 -->
     <g style="fill: #262626" transform="translate(134.53 68.907188) scale(0.22 -0.22)">
      <defs>
       <path id="ArialMT-48" d="M 513 0 
L 513 4581 
L 1119 4581 
L 1119 2700 
L 3500 2700 
L 3500 4581 
L 4106 4581 
L 4106 0 
L 3500 0 
L 3500 2159 
L 1119 2159 
L 1119 0 
L 513 0 
z
" transform="scale(0.015625)"/>
       <path id="ArialMT-65" d="M 2694 1069 
L 3275 997 
Q 3138 488 2766 206 
Q 2394 -75 1816 -75 
Q 1088 -75 661 373 
Q 234 822 234 1631 
Q 234 2469 665 2931 
Q 1097 3394 1784 3394 
Q 2450 3394 2872 2941 
Q 3294 2488 3294 1666 
Q 3294 1616 3291 1516 
L 816 1516 
Q 847 969 1125 678 
Q 1403 388 1819 388 
Q 2128 388 2347 550 
Q 2566 713 2694 1069 
z
M 847 1978 
L 2700 1978 
Q 2663 2397 2488 2606 
Q 2219 2931 1791 2931 
Q 1403 2931 1139 2672 
Q 875 2413 847 1978 
z
" transform="scale(0.015625)"/>
       <path id="ArialMT-75" d="M 2597 0 
L 2597 488 
Q 2209 -75 1544 -75 
Q 1250 -75 995 37 
Q 741 150 617 320 
Q 494 491 444 738 
Q 409 903 409 1263 
L 409 3319 
L 972 3319 
L 972 1478 
Q 972 1038 1006 884 
Q 1059 663 1231 536 
Q 1403 409 1656 409 
Q 1909 409 2131 539 
Q 2353 669 2445 892 
Q 2538 1116 2538 1541 
L 2538 3319 
L 3100 3319 
L 3100 0 
L 2597 0 
z
" transform="scale(0.015625)"/>
       <path id="ArialMT-72" d="M 416 0 
L 416 3319 
L 922 3319 
L 922 2816 
Q 1116 3169 1280 3281 
Q 1444 3394 1641 3394 
Q 1925 3394 2219 3213 
L 2025 2691 
Q 1819 2813 1613 2813 
Q 1428 2813 1281 2702 
Q 1134 2591 1072 2394 
Q 978 2094 978 1738 
L 978 0 
L 416 0 
z
" transform="scale(0.015625)"/>
       <path id="ArialMT-ed" d="M 619 0 
L 619 3319 
L 1181 3319 
L 1181 0 
L 619 0 
z
M 590 3731 
L 1005 4606 
L 1743 4606 
L 1055 3731 
L 590 3731 
z
" transform="scale(0.015625)"/>
       <path id="ArialMT-73" d="M 197 991 
L 753 1078 
Q 800 744 1014 566 
Q 1228 388 1613 388 
Q 2000 388 2187 545 
Q 2375 703 2375 916 
Q 2375 1106 2209 1216 
Q 2094 1291 1634 1406 
Q 1016 1563 777 1677 
Q 538 1791 414 1992 
Q 291 2194 291 2438 
Q 291 2659 392 2848 
Q 494 3038 669 3163 
Q 800 3259 1026 3326 
Q 1253 3394 1513 3394 
Q 1903 3394 2198 3281 
Q 2494 3169 2634 2976 
Q 2775 2784 2828 2463 
L 2278 2388 
Q 2241 2644 2061 2787 
Q 1881 2931 1553 2931 
Q 1166 2931 1000 2803 
Q 834 2675 834 2503 
Q 834 2394 903 2306 
Q 972 2216 1119 2156 
Q 1203 2125 1616 2013 
Q 2213 1853 2448 1751 
Q 2684 1650 2818 1456 
Q 2953 1263 2953 975 
Q 2953 694 2789 445 
Q 2625 197 2315 61 
Q 2006 -75 1616 -75 
Q 969 -75 630 194 
Q 291 463 197 991 
z
" transform="scale(0.015625)"/>
       <path id="ArialMT-74" d="M 1650 503 
L 1731 6 
Q 1494 -44 1306 -44 
Q 1000 -44 831 53 
Q 663 150 594 308 
Q 525 466 525 972 
L 525 2881 
L 113 2881 
L 113 3319 
L 525 3319 
L 525 4141 
L 1084 4478 
L 1084 3319 
L 1650 3319 
L 1650 2881 
L 1084 2881 
L 1084 941 
Q 1084 700 1114 631 
Q 1144 563 1211 522 
Q 1278 481 1403 481 
Q 1497 481 1650 503 
z
" transform="scale(0.015625)"/>
       <path id="ArialMT-69" d="M 425 3934 
L 425 4581 
L 988 4581 
L 988 3934 
L 425 3934 
z
M 425 0 
L 425 3319 
L 988 3319 
L 988 0 
L 425 0 
z
" transform="scale(0.015625)"/>
       <path id="ArialMT-63" d="M 2588 1216 
L 3141 1144 
Q 3050 572 2676 248 
Q 2303 -75 1759 -75 
Q 1078 -75 664 370 
Q 250 816 250 1647 
Q 250 2184 428 2587 
Q 606 2991 970 3192 
Q 1334 3394 1763 3394 
Q 2303 3394 2647 3120 
Q 2991 2847 3088 2344 
L 2541 2259 
Q 2463 2594 2264 2762 
Q 2066 2931 1784 2931 
Q 1359 2931 1093 2626 
Q 828 2322 828 1663 
Q 828 994 1084 691 
Q 1341 388 1753 388 
Q 2084 388 2306 591 
Q 2528 794 2588 1216 
z
" transform="scale(0.015625)"/>
       <path id="ArialMT-61" d="M 2588 409 
Q 2275 144 1986 34 
Q 1697 -75 1366 -75 
Q 819 -75 525 192 
Q 231 459 231 875 
Q 231 1119 342 1320 
Q 453 1522 633 1644 
Q 813 1766 1038 1828 
Q 1203 1872 1538 1913 
Q 2219 1994 2541 2106 
Q 2544 2222 2544 2253 
Q 2544 2597 2384 2738 
Q 2169 2928 1744 2928 
Q 1347 2928 1158 2789 
Q 969 2650 878 2297 
L 328 2372 
Q 403 2725 575 2942 
Q 747 3159 1072 3276 
Q 1397 3394 1825 3394 
Q 2250 3394 2515 3294 
Q 2781 3194 2906 3042 
Q 3031 2891 3081 2659 
Q 3109 2516 3109 2141 
L 3109 1391 
Q 3109 606 3145 398 
Q 3181 191 3288 0 
L 2700 0 
Q 2613 175 2588 409 
z
M 2541 1666 
Q 2234 1541 1622 1453 
Q 1275 1403 1131 1340 
Q 988 1278 909 1158 
Q 831 1038 831 891 
Q 831 666 1001 516 
Q 1172 366 1500 366 
Q 1825 366 2078 508 
Q 2331 650 2450 897 
Q 2541 1088 2541 1459 
L 2541 1666 
z
" transform="scale(0.015625)"/>
       <path id="ArialMT-20" transform="scale(0.015625)"/>
       <path id="ArialMT-2d" d="M 203 1375 
L 203 1941 
L 1931 1941 
L 1931 1375 
L 203 1375 
z
" transform="scale(0.015625)"/>
      </defs>
      <use xlink:href="#ArialMT-48"/>
      <use xlink:href="#ArialMT-65" x="72.216797"/>
      <use xlink:href="#ArialMT-75" x="127.832031"/>
      <use xlink:href="#ArialMT-72" x="183.447266"/>
      <use xlink:href="#ArialMT-ed" x="216.748047"/>
      <use xlink:href="#ArialMT-73" x="244.53125"/>
      <use xlink:href="#ArialMT-74" x="294.53125"/>
      <use xlink:href="#ArialMT-69" x="322.314453"/>
      <use xlink:href="#ArialMT-63" x="344.53125"/>
      <use xlink:href="#ArialMT-61" x="394.53125"/>
      <use xlink:href="#ArialMT-20" x="450.146484"/>
      <use xlink:href="#ArialMT-48" x="477.929688"/>
      <use xlink:href="#ArialMT-2d" x="550.146484"/>
      <use xlink:href="#ArialMT-31" x="583.447266"/>
     </g>
    </g>
    <g id="patch_68">
     <path d="M 72.93 100.026875 
L 116.93 100.026875 
L 116.93 84.626875 
L 72.93 84.626875 
z
" style="fill: #ff7f0e; stroke: #000000; stroke-width: 0.3; stroke-linejoin: miter"/>
    </g>
    <g id="text_31">
     <!-- Heurística H-2 -->
     <g style="fill: #262626" transform="translate(134.53 100.026875) scale(0.22 -0.22)">
      <use xlink:href="#ArialMT-48"/>
      <use xlink:href="#ArialMT-65" x="72.216797"/>
      <use xlink:href="#ArialMT-75" x="127.832031"/>
      <use xlink:href="#ArialMT-72" x="183.447266"/>
      <use xlink:href="#ArialMT-ed" x="216.748047"/>
      <use xlink:href="#ArialMT-73" x="244.53125"/>
      <use xlink:href="#ArialMT-74" x="294.53125"/>
      <use xlink:href="#ArialMT-69" x="322.314453"/>
      <use xlink:href="#ArialMT-63" x="344.53125"/>
      <use xlink:href="#ArialMT-61" x="394.53125"/>
      <use xlink:href="#ArialMT-20" x="450.146484"/>
      <use xlink:href="#ArialMT-48" x="477.929688"/>
      <use xlink:href="#ArialMT-2d" x="550.146484"/>
      <use xlink:href="#ArialMT-32" x="583.447266"/>
     </g>
    </g>
    <g id="patch_69">
     <path d="M 72.93 131.146563 
L 116.93 131.146563 
L 116.93 115.746563 
L 72.93 115.746563 
z
" style="fill: #2ca02c; stroke: #000000; stroke-width: 0.3; stroke-linejoin: miter"/>
    </g>
    <g id="text_32">
     <!-- Heurística H-3 -->
     <g style="fill: #262626" transform="translate(134.53 131.146563) scale(0.22 -0.22)">
      <use xlink:href="#ArialMT-48"/>
      <use xlink:href="#ArialMT-65" x="72.216797"/>
      <use xlink:href="#ArialMT-75" x="127.832031"/>
      <use xlink:href="#ArialMT-72" x="183.447266"/>
      <use xlink:href="#ArialMT-ed" x="216.748047"/>
      <use xlink:href="#ArialMT-73" x="244.53125"/>
      <use xlink:href="#ArialMT-74" x="294.53125"/>
      <use xlink:href="#ArialMT-69" x="322.314453"/>
      <use xlink:href="#ArialMT-63" x="344.53125"/>
      <use xlink:href="#ArialMT-61" x="394.53125"/>
      <use xlink:href="#ArialMT-20" x="450.146484"/>
      <use xlink:href="#ArialMT-48" x="477.929688"/>
      <use xlink:href="#ArialMT-2d" x="550.146484"/>
      <use xlink:href="#ArialMT-33" x="583.447266"/>
     </g>
    </g>
   </g>
  </g>
 </g>
 <defs>
  <clipPath id="p5fc86d6f1c">
   <rect x="53.13" y="33.36" width="944.07" height="493.38"/>
  </clipPath>
 </defs>
</svg>
